<mxfile host="65bd71144e">
    <diagram id="E92ss0luRjp5r6iyiq8Y" name="Page-1">
        <mxGraphModel dx="513" dy="466" grid="1" gridSize="10" guides="1" tooltips="1" connect="1" arrows="1" fold="1" page="1" pageScale="1" pageWidth="850" pageHeight="1100" math="0" shadow="0">
            <root>
                <mxCell id="0"/>
                <mxCell id="1" parent="0"/>
                <mxCell id="2" value="" style="whiteSpace=wrap;html=1;aspect=fixed;fillColor=#60a917;fontColor=#ffffff;strokeColor=#2D7600;" parent="1" vertex="1">
                    <mxGeometry x="20" y="220" width="460" height="460" as="geometry"/>
                </mxCell>
                <mxCell id="4" value="" style="whiteSpace=wrap;html=1;aspect=fixed;strokeWidth=1;rounded=1;glass=0;shadow=1;" parent="1" vertex="1">
                    <mxGeometry x="40" y="250" width="170" height="170" as="geometry"/>
                </mxCell>
                <mxCell id="7" value="" style="shape=stencil(7Z3bzt22EYWfxreCeCav0/Q9AsSpjbp24Lint++whvRvrdn6aBctEBT/nRNrbYmc4RzWDMdv0g+/vfvp17dv4v7bl8+f/vz27+9//vLuTfrDmxjff3z39vP7L/anN+nHN+mHXz59fvunz5/++vHnr//960/zyfmnv3z62/yFf3zF7VvIExT3f379H71tdf/3//nj1+c/vP94eX706/NpS+H++bCNcXm+tS3m++ft166/X8eW0/3zeUv79fm8tX7/fNlyvDxfxlbb/fN1q9fvKRm/p2/79ffz2AJ8z7m68/m87fD7Yd96uACSvSACIG77dQUpb5UklrbYroB9ywUAJoNyAcxdAx0KRd9gYo+0aPu9egGEthV6gynxVa1tVbitfUtXOYwtwa7Oc3BdQjkU9/nzUZc8tn3g8/n6vO3yDkIwQLkeBDt6hVZgb7jqhS2hwxZNwFUIpheLNeerEEzzOkhtAq5CMN3eQVX9GzJr3tylK6DErTGgipz7FioC5HzWeKjKHWBcP6mahaRtTceenCbVJE2CS2oBWt0KrcFO41XS/TTjdwDRpV6Ojb4DiLb2ujWStL3humjzU53Og63haoh73wbrksihj63zASrXRY+d5RC30BSA2xq2JkYpbIEBsTsAqfd+bOLDJzUS3K52yQDkfmaAUXRbSb3D2MZ10Sa4BaCLLjU8ogZo15ikmyjJwQ31JhbEJJCDAdJ1l+yIBvK53RmBwg6uHx9wAkxwtOimki524sAuGUAiGTOVkQKNso2r1cgNLZ95tHbdJYt9AjnpdJyvExBYDkGjt7xjoDEOD/jwfAa5WZgR9YNoU22LrkLICa1YOc7Ww5Y2kEHehpMZqZF//gyc7qJhUaJxrOgmGhYTWdm8WHTbBGAmjc5BPGz0AwBVwpSu6CdVAlT1bRYB7Hw0o8QYmZ3hfkR2JyAcnuLOzOfr4bckIy9CBtGjznGSP5qdQ4bqNGk/rOxzgP1e0F0a9IaxlesnmeAyvCG51LZWlPRLmvNgtReA5gMrijGcmW/5WNXdouPVIFk6TDGGfVK5GmELPxEQjvT9Qb1JW5Plk0696UynpNtqukQhg2UJ4+rQzUqSf05N08McUQ6WVkgaYHaV/HM+neu56IT5W3aex7R1B/W2L1aH3o6U8Q7Qr5/UEtpi28QgVAwzBwaQbe35yCSeA8qxJw9vILLHAFUAeYskBxdj2HmgvMHyQT1ABU2lASTGMIdC7IcBuviHxoCmeXRJGGTkM+N8PEC0hq5JqwVWqEtDXVbqHDcMNTN2ygfp0lC+xGxhh/Ng7iMLn5EwUzeAeKDpiMHymZOVN4Qz770DSPRj20bBW9i6WMrDDd8+L4YSGRx7XrxJOoi4589HdYgRE6vi6BjzFbQ/UROx/diw588nPZs7qrU9LzZ1x0DM/JKsd8dkeIZp+vsUYMyARTg6TF9K0ew88vcXDZHS4Xrvnpc0NfN+FhfNI583n5f1nof0FiAKZEklpUdF/fLk60mFigbnFgBFOjPFUYwFnaABJJW3WIAKHhNwtUOZuTCvFmbKOu+SJhgV3ewECCcZMKCaAKmqVKwZeICFzt/3SW2pfEKg94Bk8pSD8HmVzZe9QWihxva0qF+eTBUJLj+hGCmgMoBGYANjbQOI8o0d8+eSlJEwANW3DFAcAbgAiGqsPskFtqtFOyJ2ta3xUIRvFVx0ZHI7tOvW1conLZQvah3TQmc09idl+RA6E79dkuZtFjpTwu3dbc1YKp2VUbFLY3XiNPc8XfZzQFVTOaurpEtNz7RFwpQZWvIrkjZzj6ZyKEWXmH22PFC9esQUZtaPrqphOXumknXWbU0VA5Oa9ZMsfR2wrQaQMz1TDnpD0hLxNJ4QW5mDGi5/rnCm519LZpiRCJxpnbyhI9tjclC2J6Py2QfsUgUYSIhbaioFIku4iUSrjk82Q5bok5oyh+OszzwHuNLHNMYgh1mLdA0llBm2dPAiD4uucIBs19Wx75hXWWQhecCMNWBb7a8lu7VVUdzaXGRs8RK1DzQXek+FhwNkgHY9cWbaSPkMoA0KXDts9UncWmkN1UXGhYsl1bFu+TDPdwCppWduNmrNMSXMfhpAopl8Gp7nAN/fE5CWMIBy9QFLOAaQ+qetgZogzKjIechnQHQHENZtbivJYWjcaoKjYL2fifZjDgRrmAARXMVtffKGtnVYgwE0aUro47orXJsDIMc+AZJlVfTT02yJf+CayQQ4Q0ZB4othPE1lxHqDf8N0KLTooOzn4KYgM+4CsDdQcNJdB16vSFvZ70kYOmlrOHEvHQwPqSUtejhyf55y2NYR1RhPF0OA7IjxHesNwxEhM5igvsPqyvucDhhAQ7iMzIkB1La2o/Z6B1DaOnC13qlGykcb3zcCYkOKdQKEkApHA+lzwHB9ewON8RiuDS8ffvUOoN2WHd3ucDXElNCQGUDipcRM+hjaYGYOhZjTCRAf1zG6H13biKf1pjd0F/5wPu0BlrOgtnpAR9ZhjCfWm4os4ywvPNgl6gsYQ5sh+sCq/XD9LrMjjT9JsqwR2cw4bR1cZBku/BncEG2A7ADESo928CQPACJzDCA944O7doZrnZoOgLS1alPKOGtH32iXFr2Ho6pDMdWgdMAAwjrMPI4E15y2Vsx2DdCCAtB6O27GAJQDGaB5CnhhKl1bKqVlw9VB5y7xAWqOq0QvOrSIOPlWPtO+aZR60rzLGmcr7Dea+3keaA1ns9HjiWNJ6xsy+7jmenEztlsYQHycrYEydjsPaiojVn+Hu7Mwdkwt/xOAttYurYb3QOh2HWDl46q2sq28qAOs/HTV0GFGAvRJRUOHGWuQavg+1nRkFLeAq12yeGkRrCujG/kAuTdY3Ep3NaZqXG1r5LroVL7rG0LFPG76aQGcmd2d1RA5zHI59XXvZ3n/MVpnayyvSMtYWkXNzT4+YModiY3pIBzxjaZvKLFRmZEyQUiEVbk7aDTVjZZXVkD500Uo4Br4ZkJN2peepOzUhzxdmpg+7jU3LyufNFj7Xn7vwUFQDNedYRpc8pushHDxHaOTvmt/zcMRueMS9cZJx/66ybhWXTXVwJsLRBeEUXNebkFJ+TcsSK92tip8I63WHFFRK/YINt8jyNRg8z3kDbvfJkDo/h2DuFcy/gC8kvG/fzK+uaTG1BvNzNBOstmsR7o09L6gxZXU4tEcUWGRK9EIbWhDkvld4hKb53+Yh2uOyG4dG2Fac5XRjJmcL3SaV6SAqWW9nj+4s7ilJ14Rz8Oua3jhL58CalPVGExkV1dKnbEsFc2TuyTJREV1N6XnttIbglo+Cz8oXK9ul/p5V/QpYGZVUtKuaGamg5IaR8ALhsUlyLVy+1xzrfk7d/R1ZTYKX+gpjmyZPU0kuF1DhzwwOKnBWb6MzHd1jWGJBw3UXTsF5htIDkOvqiyu29i26s3QiOr9cv/tIZrBxvam98lnTkMAF/PVisll8SlKQA80O42lfW5grPFfaiflltjXdtJvAfyftpMubm58bzupLx2hbY3aM7jqx46qGquObwdY9ZS7T1p1rUfXSL/oi4+uJ2TReR9d3+Oitz8qRbu6PRCVFFjdT3DXMVc3IFxn5eqOxWlJT9phcYvD3XsKfIv+9eLT68Undc7u4hP//v/64pPQBp1njBWVb4hYRrQNlcJ94ApCyTquam4RncmkRe+48FHpOIKnDDgfLu56ceI5CcWNbsg8Kcl7kHmVluQQNL0tixueu449KNyXUlxXYeVaUXbDaurAszMTEPGzCY3jvBEhnnzgpYqZHkgdnu+pzhlbMqFnoCfPWe3XiEh/Zne5ZTBVkvcn7Q1UIDOA8BKzMZGmGIyDKDwBO5YokmOgWsET9zLr7EE1cHRDdxFVROYjNUdDV+SHUnU3ekwyNBHD3QOc0yQIkFXStgZioJIzZJNm4HkVkvQ0nqSXgjtxA7mVOLR22hNP3XLTCXtYTVfp0j/akFCKrsrSeMJidN2d8zYMDa0p7nZYXI2U8XN0cNSY8w9lMQ0wPLnmGnlM15OeP5pY5QYrmPJRsB2a8w8d6c9QnhSviB8KyY0BCVgeC8G1FnPi5meZ8dS6qge0ccNS1iatOfGVFEkrubWxlN1VGx5VEbT3aDHjyk3ELTwlJWjHSx540oKrKDGpH9WNZO7Id4MSU8X+mKzT86ZJxgm6OiokYmzbdVzQy5il5/uz6+ScOfmJxshF5S8ngAfVyRFI3AU+Z4bJGjIPGXMeYc40WlgiV8nEqWRDj+WcpcNTybTlOvBwq3B4+hNQMA2OjtWqywGaOrutohyiIwtnyY2nhkqmNyuPPFntdfJpfJ18+hzwO5x8Kr7Qsh5itsLQTpfWsRBjAD1ACb3/fINz56TewU1MrwlZgDCUni+LGGxo5aYkDDyDu6ixGEM9AeITObT1b5ijtBcAufSzr0bWiqmc48BZcKLe5sQoTQouIZ6hKFmNoDXrwHKYJ06Y6oqWzz5JO0w5EbMlyhosl8PwvOrdEZMD3aoOrmyY+B8cCK6NMHUGRNfDGrFWamKSIzov8vEUV2UBIoZwXdtwS+PGLzdjPWHIXR3p1pktVUPcIqpFVtfQd0zP/Xx1bsaIruuGlShqImzOkKgnVxKa/bWYUsnNncH9j8FdoIpYsAnKSI6IbmpXpmBEDOh3Ry8GtKa7K4MzseA8/2Cu0N+6HtiR5BrjF5eInt7qxu/53n8UZvW8/eHlX6D55f2HD1//AZvHv9d/scb+19d/7Sb9+C8=);lineShape=1;rounded=1;shadow=1;glass=0;dashed=1;sketch=0;strokeWidth=1;" parent="1" vertex="1">
                    <mxGeometry x="258.3066024873316" y="238.5074847973791" width="160.00458535080554" height="61.71279766491284" as="geometry"/>
                </mxCell>
                <mxCell id="8" value="" style="shape=stencil(lVbRbtswDPwavxKSKJHUc9f9R4Gmi7EsKdJ0W/++zAxrpmxz2Juj8EQdeUdpwIe349PrYUjh7Xa9fD/8Gp9vxwG/DCmN5+PhOt70a8DHAR9eLtfDt+vl/fw8/X59ukfev35cft53+D3hcgLMd1QKH9NKhUR/Fr5O8afxvIgnhBhMPApU2QfUAkkMgBPE7AAE2GZgglr3ATEECBYhCbKXokJAC2CoHqBAtRlqmle2AWHerwEIJO0DJAORBWgjeB/ADJwMYFGHbUQAKTaFuKwpA3NPIjqdoAAx9mUKZR9QGNBmEHKPVFoVGyBCdkgXgWJbrWoKTiNIDWEzcAR0OJA2ohqArohTJc49aSquwJXiGiCOSUXmqi+OVKIjV+zFpGJhJ0Ndkebm8z3L9Y0LUBzSCiCrJZWGOzcYYqfWOM+2bUBaybvMJtwuK81VXxiI0AGoIVemrk4GRgjSA7LnOFqNDXb7QGqXjjRC8eS9CXA4pARiHaem9Syaeu0lcimoMu3+uoM3KVe3QxR3TqoubQ9ic8fO+XN/g5JznNLXU+eR54O5/+2+dUdwzHMt2uld18QKxVa/aXabbIZa+ninmBgg5S7eey5gmavRugvVsRjqLWm7W4Advv/73vl3vH78fVy9jKfT9DZb/t8/xnRpesjh4yc=);lineShape=1;rounded=1;shadow=1;glass=0;dashed=1;sketch=0;strokeWidth=1;" parent="1" vertex="1">
                    <mxGeometry x="366.1688764722362" y="273.84597596874323" width="8.128155359397397" height="10.248073039618816" as="geometry"/>
                </mxCell>
                <mxCell id="9" value="" style="shape=stencil(lVfLctswDPwaXTEkQYLkOU3/IzNxak9dO+M4ffx9oWooC7S1tW+yjBW52AVADvz0sX153wzBfZxPx++bX7vX83bgL0MIu8N2c9qd9Wng54Gf3o6nzbfT8fPwOv1+fxkjx6cfx5/jF35POKYcR1Bwf6YXKVPx/958neL3u8MivpIEGy+U63p8cJSdBXiqAQAyZTGAWCgDAAt5toBEDChc/p4BjkpZB6RItRgA6yfSOkAiiQWEQjWvAzJTslsKnsStAwqTt7r5SByBbokkG4AjZhAvVKSL90DnmqlWy6Dt8Ha8JiRZX1AVEK/G6wh7ChjQieYzRcRAAXYFLY4KbKGAZI3HjhxQWTnnKx95VGxaC1Y0LpTQloTkytpwhUSx46CskG6zzWaAUEVGYorWSBwoIeFCK8ZZB/UiEi701lavJlA84wqWtBaPQ1tiYrtCwd6LFKwMTIIYJAqWsjYkJIL0OVXjIcKZpCNMARtVuh6ME1op2mKuLWGrpWbz43FD9W4muGiQBdmuUu46amlzYg3gOp9qU0ailX7u8JzmNRVc54qKOTwKKLGfCjpsAxAux0ZxBlQ4d0THiFVaMpwjKbXu0AA5tSPE7ems49zWgs66DFbQ/lNscVYtf2AmNUK0WdL6QxzGaunsXYhBG/ZzW58BtW3yvlPVwvC3SffHtooPGKH1kyUDEO/7aX6ZLCvxofs+UwH7d/00V80cyKijYBNUEuyoV+2iOCjAVby6tAK+V/vJnhzcT8dXpJ2L78unhKbIfXqJzv1H/JC0KADfR68J/4/Xh8ud5G23309XmuX//R1GX033H37+Cw==);lineShape=1;rounded=1;shadow=1;glass=0;dashed=1;sketch=0;strokeWidth=1;" parent="1" vertex="1">
                    <mxGeometry x="395.56712656005016" y="300.22262475737955" width="47.25817737314355" height="8.645454595111687" as="geometry"/>
                </mxCell>
                <mxCell id="11" value="" style="shape=stencil(7VvJkhU3EPyauSq0L2ds/wcRDGbCGAjA29875Qm9aWV154OTL9zwWPm6VUtWVkn9kF59eff60+ND9F++fv742+NfT2++vntIPz3E+PTh3ePnp6/410P6+SG9evvx8+Ovnz/+8eHN839/ej1Xzn/9/vHP+Qt/P+O883WCov/n+Q+ludL++8svz+vfP304rA9u/q/j+uh8UutH29bn7ry/Xh/d2N8nJ5fL9frs4v77qbsk3qe4Vvb1yfl8vb65HLb18y/CPsP5/fexI7Xf4F3tGyBU15VBowtpB0QXuwCk9cILAAspD2dX9i0UF4NYX12kF1o2OF8/XM3beq8jIriyuwA+H2I9DOS39fCY+v3o2v77AUEuNhCTS3uMhuJ6FIDMSYYtV+ECAPpuohm3ClBc3Z+QvBvqlaoru5ES9qA23djL2bss4hSAQYDschWAvojnBmiLPM4BwxXirrTMcAqATeLu6aKfAEDb91C9S8KsAPTdrFUnw3xCZoDyNACUnTVKs85NEyCtcLwyazeAokJjuNQZ0FWGdtd3x1VkiPL0jdO/FdBcD/xKQ5FAcymbTSsrVTcMwAsaBoBobzpOAzL5AaGhzFpPwruK2jZJhRIorvJ4BaDagxRV4Q0iC7tcyHGx+RUZl/0JCRVVZByqCXkaAiAoT6dV/Q5PyMqs2GJgQBTMlwJnXGrSrJAgFBqprhJzDqgu0Ctlqdpgk0pmRfAJs+awrH4oKMqskGmJhE+TRJYLe3oWMWFWhBrlA1ypym4BGe+ehpRQ+VAgLKjsRpdEaJRqCnuRZgUgZDarfEJm/QnHqZI15Tg5LksBDStRiiK6urASBDxVICgBJUDhOBJYCJamPV2INW70fAWg4MuavfPgNgYZ0kV4z1gaOyBJIoMfyNNTrig/lCUJDwkUlac761wQT9CARJuGZ9SmO1sJ7K2YDwC/b3p6Rr1SY61Rbg3gFYCEbrmJiStAMVqjimidT6D2wWuzNhaJDWVSP2Hs+dDGeualp3c/9LRo4dLTux869L6imb6UxQKMIFVlGUvs3AB5FeJLT+9+GGOZ4ZL59tAIXjeKCJ24e25U2WZN6iu866iKnKGNjvDSXJl3M03PaSYbO6B1N4TnAKDK3vKS45dllNT6kNohm/hGBqmkxqapH0C0KCaDWYm+4XxF33Ac5Sj+ElVlj6tduBFT1RmUWFaiogRV2cua2hyq4j3qo4pyo9tTQDVzELTsytNwUybRl1wUZq23QcmxoohXalZh6ekbYrPtCTRbClEVWzWAJOdv3TMJRC893SNPQgJyULxSD1x3Z9MiUrQbmoGVvAA0M9iAhlMVBYC4ZxyCT3VNAGQznFEKq5spArI8KLOmpf5vgCHbXTApd6+a7sHVPP7xi0fOAY09DYCSxgPBbACqgRiDxXfRkgyA0hkwhJVeiuZRMIlYOhTNA7mqTg6P6LQJ5Kh4BABEG7PN0XZtnQFKxAHAdtXaeNhgapKYoBQoIQBQ5xrDzk6qHDMDQCcVMKvqIACguUPRndwEkJWS3nRh2ij6KGEUTmqEq2pfh5lhIYPUVGCYMfPMUQUwLQcASpKNziNaAFTLMcM78KZVBzETKLFZFW2c5ajukE9oIMumfdhZuZ73TyozSa2G67ArB1OTRWsYIVraPf7+TkAwurLJoyN0Sd3QhhrqTvFQ2Eqqb4Ka5/41y6Eueslqoi+oA8vMcwQIeFWDZr+wexpdvtICzc6k6iL0KwAPddOa8HyjTJzTR6UrDfXFm3C8AmQazyR5nAUhSn0WZKKib3iaMi5EmaI9cJcf7ijXtI74DgCl+hDe/IQgGwJosrr3KCGt86pzQF+hdrCSKqO98clO1MPEXljEwXFSiEYWG/PYQ6tvK9fV2VFrDEheznNa4h4F+dBVJzeYZmbGiU3Xag45uqy7NbGGQwehpvHVs5zJ+uwIxEglK1fdIJsUzdoPxRw2zSGsekIyCqtI9T1/j2YnXgYfuJpG33P6qAYVgekevle3LwCgMQKiqyo/RC6KiN+hZyfkODCVIrJ5Cr/nNJL2jqdpXInKrcouYqmY6aPqqKc6oklflcOWE4BuzErmezxgW3UDYwL2jAOfy2ll5vlPG3rkmjmnW5GFfZ5/7SWr+aUNrgA0BUZ4K91aEkfrvfF9WicUx35X5zSJxKyv/wBgiUzeIEsr1G7c2mQLXpIZ3N3Zg2lGU5ZXNoppFdPQo/LMJQub9neOswqbVQmsPPgiX4lSwqEa0KHfHDuoUbnhpRkaanofzenUWPPLc0AwV5iKjFY8gZQxfqKoYXw6OYdUF4xe7lAdhsCKKmFWb07+1YXHbI4V490KlMwVSaVmcjcJ5FeDcA4oK78Oe6jilWBWIuNpJXWLNHBhTzfpewpI5mAna6rEC1BLM2/CCCulWzAfRrRqgJo8a+9c5E1SuKnSK+nzsnkR1BzvqrI7b4KO7wEEe1WgyiFCKIaXsr6PbENjSN0aMh8dwZWqLQt1TUtvgKBHtOMkH+T9uchlN+lzy5j5xuqd6z/z7hnxkh5TzBMNopkuW8tJKuait3LcDG/bDqgU9TwImaMWfVPyx23PH7c9L/Lh/7jtqW4kAUBfGkwprei+MPOVLCUcWIO/3Riy243mwPnlkt85wJ6y62snc9ZDk5Mq27L5MYCRDjKWzAcu0/dqD56JDD8hP+Awx2VB7yF0jqUQ5Y3VYI7LupzahcGnZVk2Ay+Tz1ufKHlyfiFCU0EtloL5/gFlW3VMITFlwAaq6wuBmTgmmZ94Y1KIcyqorglw9ZlXdOWHRjSFn7pEXdYwN1qyHMKXk+ZH3nViYYU2VvVviTXJvFOmyIIZtQx5ymy+0sF61QNEVjBYr/wVWYRVfe0vsJ6fE1GVlKbkeHmE7Zl8qz4C8UwS2K/qwjxPiLFecTWeXnm9kvLenMt2ORS3R6BdVtjv/XDx/nr84+UrybdP798/f2R5/P/8VSX+9PxFZvr5Xw==);lineShape=1;rounded=1;shadow=1;glass=0;dashed=1;sketch=0;strokeWidth=1;" parent="1" vertex="1">
                    <mxGeometry x="266.0728072642786" y="300.2181491709526" width="108.2219717530528" height="78.80108576214991" as="geometry"/>
                </mxCell>
                <mxCell id="12" value="" style="shape=stencil(7Z3Jkt3GEUW/hlsEaq5ay/J/KEKUxbAsKijJw9870xReAzffO5BWtiO4I7uRXaiqHG6OeFe++vn7b356/y7vP//y6eNf3//jw7e/fP+u/Oldzh9+/P79pw+/2L/ela/fla+++/jp/V8+ffz1x28///+nb/xJ/9ffPv7d/8I/P9P1bRQnyvu/Pv9glK33//zkz5+f/+HDj5fne74839dWJz1f6vX5utX99fNtm/v1+f1Y8enzdZtd//4O72O/lfcfW4fny1ba9XzytqfXz+dtyXn2bYf95q2Py/Nz32aj98/X8xzr+AsvzrOl6/O2X3j/vrV1fb7h+49tXN9/7Hiec1vX9zH+ybDftAcGzceWnhOkre2641qBIG/puuVZtkSvlLd55aE5tx1kJpVtXZlo7ceazwnaVnYl6HALaWw5EBCbpsep/849ZLuHeSWoeNE5BQJ7JThWE4UqF1e3AqxtBEN4aWyLCaYQpG2RcNoKV2lrdtC0aduDrGDcypvOQR+VggS7CJytQBeXj3s9ycNOK5RtCEE7lM5zgqoyPdJWaYW29avE9Y5K3rRSvioBswqLjrWrEmimOIk1+nGIB0G1V6I9hBXKYtboaklKYcvQt3QVoGICBFojEuS17XRxXZWAqeed76FcL870/80r9esp+Z/gTU95pbYNIhhbqkqAAmTWIKyQeQWRB1+BTmkeeu5E0OmU5laSnhLy0lSr7vdASmAeoO5EsPiVRPM5L9EpTRWg0rZKEjdVgKqZSeLWuVUR0YVQzwmCEri7BwGT+yG0LwmuN90NvxLzGcFVRE1V7nxKwq3jgZB/5z0YQBzMGlMQqK1A97DUxs2FF2dqq195ycAJ7aHkQ22d8RKB9Hrw5uOVTGjhpo0313UFQzMkQGWo5rNjJfYuU1GlA2laYR4284SkE6iZMoMr0xAklqFIwMBJoWNth2t3IsjA3nYP9cpL5o2RN2MEor1t0yQPJfhvfqwAdEvVTRsMJYfDCBQZN7SidkpJ4M88oO8rgi4EdkrErcGwO2vQTZtX3/Qe8JWGOhxtIUgsD/l6EJjny9yar5t2gMUCJJ5o3dEtM4IliKwcDsJzgqWs4UaRRHTpTRtWJgvkK1y5NXUEJyUo41SPq/y9BOVA4y9PqSgBQTjfw5WXzP8lo+g4WDZtriCxhmnSQIAiuhTNJHYHjEBYwwgm3PQbq51XYAIx7L4HJhD29lOiwM+uMp1YextBZI0EzGcEkTXoWI1AgleZtbdv+nrTJnGN9yCsYdiAwo1+D1eD4pqKCbKgyoIBsrqrYTcYerNCup5S62iy/JUkBpoxcuIEYnZvj1WA7sjHQb+8B7FAHbGGM58ArMzM9/j1GZHRpsthb04rEMCqbWsCsCaHih++7Qms402PELweCHTrPCKTD4JyeEXPCdbBOSc7Tc6rEVSx0w2hdNv1HurD73pFIHuwmyERbYGX3ABQSiCpA24EDUyWQ5Gkr5SJoB5W+UHAUW+X4KoEZOPaQyAfBBUd8DZVt5qEDBCgttSlsRXIAplvO8QBHxhZNwLlJY7zOYFwK8cE3N2WFRaaXSNowQEvcKweNxSJ47BdD8F+w94E4Qxp90AwwH/oXUMtvgIwX58aWe8TV7C/l4Wgo532+K0YlHRgg+cEIYdiDE/a24PW11cyXkrAfEYwRUQr2ukRMnEOfemUigYRSkGXxlYQROY+PBModCiHhLy6B0l+mT6nULxfnPhxDdG9EQheMokjpykSmMmaN7x0lQfjVkrr2D3kQNBo000hnJldAlgjhLFNazR6pRECIexaGrIQVWkCRElIz41dN20XR5GTmTQPZHaauHUGK1oT+tMOp0QeBgakZmBvz3DQprNGdD1dzQQS3Myc5vQVxAdqqDVm0ZtOA1OEtoIo45wwH2cEGuxv6IvOFBTZjjbOCCTe+hbTekWgTtNCGOorCPOxqvR7uKpKwxqEyOwemuilHUXUs9HXFVrBUPxsmpoyUDepcqFr6cUb+nhFoGqm8gpNE9qDQ15xD0ZAYN0ItJwlYTDHY5+x/oVuuoY9sGtpBLHCptHFlQM4nwhwD0VZwzaN91CCe2yqko61qNPkkIv2kI9ChRMMJffYCKbw0kA04yuIL9rRQ5kB/vQbZVw0Kt0rovsZsjSGNfDiqurWxsVULkASaskIdE1E1VMcWP42HyGDk+ZDeVgKTjwSDse6QmzGrCh5uysdmvRhUBbmp1dIr2V2y4xAnKa0Dn3+nKBoDiWxW7aCxKUdLZARiGFvh5/2/Pka6uzQi7O/P654LHHqa2VNyaeJvGrXJhJtwKHToaYDNp+vjV5p17IzYwyK/awQyikdofqKsdCCXtzaNaRWFwYpVoirm1mnGq8oDW1iENsuLoWSLcKUztxBURYiqApz+0Qls1qIOSSEiGsc5ulBULF6ac1DQ5ziuXRKad9Dip0LVdfSDOEcLEFT4ZIpW0Jwq2vwZ3KNil2EuNO2AtUw+lUPJSAgYNy3JNvcMbXrIifHWhEuuQTJCgVj/XYmWq16A8iWxgUn16g4gTDTQk3mryQ1jDfaeA9lAuPOiIr/bfxd+R4ELhlBYj0TJYiidkYwwgoUOFlZY/22aZSHrCl2uwe6OCcQiWP3YWWtw5w3iikfVQQnbqUYwgoRL5MHtChJkYOjRhagWPpzI6ItvBLFEFZI+LnLQrB1KRRwuE/Qe4VTSuwzRZnm4iJ/pVjUQup+V1Bp3EoOu1t2UQIdKz2NQOuS+xEpfMUaWjbTMVlmBC1mOUni/jBBVkhmx4rMVxVsTA4JGHaQoPTc+ViHgj5X90QwNctpBJmsaCjcnBzbXEMjLZNrVAwJiFc2OeeyHvDoxK0UwFoPtXVCWKhm0oEsThiOIl4rVC54ZxJrjRyC0hgyniGrs7M7bWcS/G8Maww91jqxDnMO9fBrRhGN/nepmGKfAel6OSrtIZZKdw63xqowLkQwgh5izHTTkTVSucUa103zFoy7BVQmxsWh644ZafUQ+cG8V3SAFmLcFeKgqWH60Qg0QLEwu+4+XIiZIPIp6v681U2/NA0he3JDIJdWBpb+GVcIGDNhQ9lZ6s1UXmFOrcnxUgwShaFgrA1MrBmBeutcXDhjQ+mNOH+Jqf9G8CWm/n8QUy9auN25q2xmDajdgYCkPp+BAMzE7WpxW8HuPu+kCI09BIpHQKC1YYLTCJrkK3cEY76C6NaK9fC2B/H5MlcuGYGmsrkGwXG/BJh5BSMQ9JYqFgzPYFDSTc41dIquo773lVoS85C45WtWVUtpcia7amTJG/jJngRHoNw4xqHFpVQMRc2qMcQyOToW0mSVYyazKGL1JBZrmRzMdGLFp8n1jqWCXrMgZnrH/Mybz3lSfNS2NkJJf593Ii0ZIHfIqIZnBIvFozF80oNYrIaZOw/Sh5gJFsEVdQTcbeW6PHGXbmqeR9AyHgelgsrQT+JVbsDenvsINhHrI2cYOZIQq/dw063frSC81Bjy9aUmzkR0Uuls4NbCyZARxl6UhI7xCPEG772+qY8UghszXcMKFfOPb9x/0q2UmH5CUPEejEDC/IWn0YyA1b0rgAlEgFrmyr+qdr1zNa/JtPR9GgolyGcXp+2DO8qDs0ZQZFSMOEJvkh0DDgUKXQaenyF5iPnHR+/1c4IRfKaFht2VylQCclDM3kjFmSMueqWsIYE3m/ScYA+t2RO1Rgt6aXCVgxHocBAOzbq3LczH+crYx+AtwTR/aCj09p8A87Wh7N0ycqsRSLDI4E8hgqnBH28+4mNVb2BiYs0bHwTzdUQCZtFk0/ZKKHExlsMGpYWETktY22GbFv/b3DjKALUWrGjljpWqY2DsJ4QqW6gXtp/QQIe2K3Qwz5LUTGyXqhUvzgi05nlhfUoNvatm40iRtTB4qXCj6BuWfxBk1EsthDUKzwgzApGHmhGGtqyVGsatuIdQR9E4DWwEskJ7JC9eEUi+0hQZJfzfIOFZVXLrnVqghJk4L+APGVEqs6tB3ZvJIq3hHY1CwMxXQ+B+8niqGlz8uVCmvatNYggJjaJ3KSclIKzhteyh6ofCFGWqqjSHmdLxZWpb8+BOiRL6Pt96iV4RaCk514KUALDuRncEo+i1tjyvRDLTdSF7+0SU0DRAUWwnEM037i4uXzdduPzXCcSlGTzQIfT1pMXjR74MdPiN4MtAh0jwPzjQYQVupWBODWE7Hyx5o70l7F0QhtZdsYZPuOJNS6mTAay7GRMCThKqyrprtW3lKJxxqwy1c6B7I0Ch/xYV2QpoZmC4yE2WgJOMuNWVcSgII7xUQk2yN1DxlCMJtayMflypKqJeZ0ArZG3uWwX96RJqNufiTSd9pbccySsC0a2D3WMnCC4+JWmMQFtROd5aAvbuiQdghfaQxmnRN4/n5FpSKWxpmqltXLlQwlhid16JYIXG6XGn7rWtmZP4NU4eGHhKEeiOwlA6lAl5VvJmnlUozLuBP5JtnhPdsjIUYK0d3TIfdSaj/3iaiPGScOviPGopKtNrYEFISRozXgvtQw757LeSyecEU8GJKTJCM28o9eQD4SDjrgDLC2mYQIc87qiMc9cRKqNjTtFHnIaCEByrGqbgmSIjs+sEYWowjvMMFuhuYGjI+FWuuM9NE9o3jdNOEGbf4Ck1rTAuDRXZlzHDx7lRWufLmOHHPfy3xwyLD2ToA9k7TMxyD5uUQCjnrRy7zysEyrnWwQnikBY2KLFxGnlpakqkFzZZwQIN7r/NI5QuVETGxmqSbh6DB6y30JfAYWxPXwv27uj45dhrxOPavMo5dAIN2LQ5w3FqMBn2FGr6R8ViIV8hFD0SLxmBTswqyEteZXblpcbf08h7yPjdfAMhaQb8brB31vL2emMfqh5rnYwEmpbC2R5Q3YcvdpgPhJ/HaIqXPEBLx9o00+TlrfxZBm3h6jzYO/QpezqBTqk8aaWj2EwOcwHMf0C9lAP2TtjHabykX06pGJDKoeDJsDdF4VKocV8D1b03dwjBQviTmkbWT93XzylK8JoWxlpSUni/uEQq7YodvG+e+h80vmTKGAv71TxMRqFDo62eyaIkZ2jMHthdEQaTe9cOCY+K8+I+vV3H2U0Op+0KY2ZB/RLa9QfPzNy1ytuLsYBJd83d3xQhJYXD/QY/a9KuLZ4vroinNc4wh1ICnlU2FCA1nq45tV+wTW470RSi1/FTlXDo8JpcDa4l84M/cjW1fWkURPLhfcZNX96TEjPsUFGFNTo3d6gOHQwGh+qHG2M5QktOR3Q6NKLv3c5U2hi+89Z5tmRov26YNnzMOjs9Tym6HooZKhriP/5dwbvn7R9vHzH87sMPP3z+BuL59/rRQ/vR5w8mlq//DQ==);lineShape=1;rounded=1;shadow=1;glass=0;dashed=1;sketch=0;strokeWidth=1;" parent="1" vertex="1">
                    <mxGeometry x="239.9988314353261" y="353.9414530172169" width="212.20168529229488" height="62.93611115432293" as="geometry"/>
                </mxCell>
                <mxCell id="13" value="" style="shape=stencil(fZbdcgIhDIWfZm8zQAg/17Z9j85U606tdqz9e/tmZ0c0uJ47xP0I5JwEBl59bp8/1kNwn6fj4W39M76ctgM/DCGM++36OJ50NPDjwKvN4bh+PR6+9i/z74/n6ctp9H74nlb4nbmSKZeJCu5vngmZ6jzzNAO7cX8FVKEsBuBKrgKg9oAE8gkCbLeUhEoEQKSUDZDLeWYRKIl8MEDRmHwfyBrBG6Amyu4+kDxxMoB3jhwgYu7TVAsVkFcWCs4CTBEoF4RctKeOxHIf8IXYpikHikAIf+MNUW94AGSSaoAoFIE3AlOyeWU+p2E5S9yfQZcQILVuQOwZdJNoS9Ls3wA5u2XZTIHECqeJ9kDpSaauRiNVcAY1QhdBzeLBli5WazpkSsBLV25uRaqWRyFawTQzRRIQYirJzq5atkBqLfouwqUxLBepthWb10vrWZY6UOAeyKCCtDV625mm9gmUC4Wc3VLJMMIE1BsA2FW9JraVlQB7n3c9oMKhCLEvIM1zBPZ25/umNQ1tVEC2G+fFCC8g398O2hNQuQlVu752DBfA+q0ptnqO5JFmeuIuo9DY7KjY71UxdJV4EntifPWorW++R/dC4t7V3DlIB5cHx2bc7eb3yvX//QNFp+bHDT/+Aw==);lineShape=1;rounded=1;shadow=1;glass=0;dashed=1;sketch=0;strokeWidth=1;" parent="1" vertex="1">
                    <mxGeometry x="590.5346478541944" y="412.20868648195665" width="4.672539772115442" height="4.665236216357698" as="geometry"/>
                </mxCell>
                <mxCell id="16" value="" style="rounded=1;whiteSpace=wrap;html=1;shadow=1;glass=0;dashed=1;sketch=0;strokeWidth=1;" parent="1" vertex="1">
                    <mxGeometry x="60.99000000000001" y="494.86" width="378.02" height="174.87" as="geometry"/>
                </mxCell>
                <mxCell id="17" value="" style="whiteSpace=wrap;html=1;aspect=fixed;rounded=1;shadow=1;glass=0;dashed=1;sketch=0;strokeWidth=1;fillColor=#60a917;fontColor=#ffffff;strokeColor=#2D7600;" parent="1" vertex="1">
                    <mxGeometry x="500" y="268.38" width="110.64" height="110.64" as="geometry"/>
                </mxCell>
                <mxCell id="18" value="" style="whiteSpace=wrap;html=1;aspect=fixed;rounded=1;shadow=1;glass=0;dashed=1;sketch=0;strokeWidth=1;fillColor=#60a917;fontColor=#ffffff;strokeColor=#2D7600;" parent="1" vertex="1">
                    <mxGeometry x="640" y="229.36" width="110" height="110" as="geometry"/>
                </mxCell>
                <mxCell id="19" value="" style="whiteSpace=wrap;html=1;aspect=fixed;rounded=1;shadow=1;glass=0;dashed=1;sketch=0;strokeWidth=1;fillColor=#60a917;fontColor=#ffffff;strokeColor=#2D7600;" parent="1" vertex="1">
                    <mxGeometry x="510" y="439.99999999999994" width="219.73" height="219.73" as="geometry"/>
                </mxCell>
                <mxCell id="21" value="" style="ellipse;whiteSpace=wrap;html=1;" vertex="1" parent="1">
                    <mxGeometry x="100" y="850" width="120" height="80" as="geometry"/>
                </mxCell>
                <mxCell id="22" value="" style="ellipse;whiteSpace=wrap;html=1;" vertex="1" parent="1">
                    <mxGeometry x="395.57" y="850" width="120" height="80" as="geometry"/>
                </mxCell>
                <mxCell id="23" value="" style="ellipse;whiteSpace=wrap;html=1;" vertex="1" parent="1">
                    <mxGeometry x="254.3" y="850" width="120" height="80" as="geometry"/>
                </mxCell>
                <mxCell id="24" value="" style="triangle;whiteSpace=wrap;html=1;" vertex="1" parent="1">
                    <mxGeometry x="426" y="850" width="60" height="80" as="geometry"/>
                </mxCell>
            </root>
        </mxGraphModel>
    </diagram>
</mxfile>